<?xml version="1.0" encoding="UTF-8"?>
<svg id="Layer_2" xmlns="http://www.w3.org/2000/svg" viewBox="0 0 52 58.46">
  <defs>
    <style>
      .cls-1 {
        fill: #f47921;
      }

      .cls-2 {
        fill: #ed2224;
      }

      .cls-3 {
        fill: #ee2829;
      }

      .cls-4 {
        fill: #ef4341;
      }
    </style>
  </defs>
  <g id="Layer_1-2" data-name="Layer_1">
    <g>
      <path class="cls-3" d="M5.19,24.67c-2.73-1.7-4.63-3.98-5.08-7.26-.21-1.55-.1-3.08.36-4.57.37-1.2,1-2.22,2.06-2.99,2.23-1.63,4.63-2.79,7.43-2.93,3.47-.17,6.28,1.3,8.7,3.65,2.56,2.48,4.32,5.51,5.83,8.7.73,1.55,1.38,3.14,1.96,4.76.13.36.33.73-.12.99-.48.28-.71-.12-.95-.43-2.18-2.7-4.52-5.24-7.3-7.34-1.41-1.06-2.9-1.97-4.6-2.5-2.64-.83-4.94-.32-6.85,1.74-1.7,1.97-1.81,4.28-1.41,6.69.06.37.16.74.18,1.11.01.16.1.38-.2.39Z"/>
      <path class="cls-2" d="M27.93,27.84c1.28-1.46,2.48-2.96,3.57-4.56,1.82-2.68,3.42-5.46,4.22-8.63.61-2.4.71-4.8-.58-7.04-.99-1.72-2.35-3.07-4.34-3.62-.99-.28-1.91-.02-2.62.7-1.4,1.41-1.87,3.12-1.37,5.03.37,1.4,1.49,2,2.91,1.64.36-.09.71-.24,1.07-.36.09-.03.19-.16.29-.06.1.1.07.24.01.35-.28.58-.75,1-1.38,1.07-1.02.12-2.04-.02-3-.44-1.48-.65-2.11-1.98-1.87-3.72.47-3.41,2.47-5.66,5.41-7.21,3.61-1.9,6.89-1.05,9.59,2.38.73.92.95,1.99,1.15,3.08.77,4.11.43,8.1-1.48,11.87-1.64,3.25-4.19,5.64-7.27,7.5-1.26.76-2.57,1.4-3.94,1.95-.11.04-.21.15-.38.06Z"/>
      <path class="cls-1" d="M28.87,37.65c0-1.86.01-3.73,0-5.59,0-.39.06-.55.51-.55,2.1.03,4.19-.03,6.29.02,2.94.07,5.42,2.57,5.48,5.5.05,2.11.01,4.23.03,6.34,0,.33-.09.42-.42.42-3.82,0-7.64,0-11.45.02-.39,0-.42-.15-.42-.47.01-1.9,0-3.8,0-5.7h-.02Z"/>
      <path class="cls-1" d="M26.53,37.62c0,1.9,0,3.8,0,5.7,0,.37-.1.48-.48.48-3.78,0-7.56,0-11.35.02-.37,0-.48-.08-.48-.47.02-2.08,0-4.16.01-6.24.02-2.95,2.62-5.56,5.57-5.59,2.04-.02,4.09-.01,6.13-.04.43,0,.58.08.57.54-.03,1.86-.01,3.73-.01,5.59,0,0,.01,0,.02,0Z"/>
      <path class="cls-1" d="M35.06,46.16c1.88,0,3.76.01,5.64,0,.38,0,.48.11.47.48-.02,2.04,0,4.08,0,6.13-.01,3.04-2.55,5.64-5.59,5.68-2.08.03-4.16,0-6.23.01-.36,0-.45-.1-.45-.45,0-3.8,0-7.6-.02-11.39,0-.4.14-.46.49-.46,1.9.02,3.8,0,5.7,0Z"/>
      <path class="cls-1" d="M20.4,46.18c1.86,0,3.73.01,5.59,0,.39,0,.54.06.54.51-.02,3.73,0,7.45.01,11.18,0,.44-.06.61-.57.6-1.93-.03-3.87,0-5.8,0-3.41,0-5.92-2.54-5.92-5.95,0-1.92.01-3.83-.01-5.75,0-.45.07-.61.57-.6,1.86.04,3.73.01,5.59.01Z"/>
      <path class="cls-2" d="M30.26,29.07c2.39-.94,4.71-1.97,6.95-3.19,3.67-1.99,7.08-4.33,9.96-7.39.11-.12.22-.27.4-.2.2.08.14.27.14.42,0,.95,0,1.9,0,2.85,0,.7.02.7.69.55.99-.22,1.99-.45,2.99-.66.19-.04.45-.2.58.06.11.22-.14.35-.27.48-2.05,2.08-4.16,4.1-6.62,5.7-1.39.9-2.85,1.38-4.54,1.35-3.22-.06-6.45.01-9.67.03-.21,0-.41,0-.62,0Z"/>
      <path class="cls-4" d="M5.19,24.67c.2-.52-.07-.99-.14-1.48-.29-2.1-.35-4.17.9-6.04.18-.27.38-.52.68-.67-.71,2.03.19,3.56,1.57,4.89,1.7,1.65,3.81,2.65,5.98,3.52,3.84,1.53,7.84,2.44,11.89,3.22.28.05.57.05.77.31.13.17.3.32.18.57-.11.21-.29.3-.53.3-.73-.01-1.47,0-2.2-.03-4.52-.19-8.99-.71-13.33-2.03-2.02-.61-3.98-1.39-5.76-2.55Z"/>
    </g>
  </g>
</svg>